<svg version="1.2" baseProfile="tiny-ps" xmlns="http://www.w3.org/2000/svg" viewBox="0 0 2160 2160" width="2160" height="2160">
	<title>Logo3-ai</title>
	<defs>
		<linearGradient id="grd1" gradientUnits="userSpaceOnUse"  x1="233.912" y1="1658.065" x2="317.815" y2="1658.065">
			<stop offset="0" stop-color="#ff8e33"  />
			<stop offset="1" stop-color="#ff4f26"  />
		</linearGradient>
		<linearGradient id="grd2" gradientUnits="userSpaceOnUse"  x1="121" y1="1657.75" x2="241.819" y2="1657.75">
			<stop offset="0" stop-color="#ff8e33"  />
			<stop offset="1" stop-color="#ff4f26"  />
		</linearGradient>
		<linearGradient id="grd3" gradientUnits="userSpaceOnUse"  x1="388.162" y1="1657.7" x2="489.412" y2="1657.7">
			<stop offset="0" stop-color="#ff8e33"  />
			<stop offset="1" stop-color="#ff4f26"  />
		</linearGradient>
		<linearGradient id="grd4" gradientUnits="userSpaceOnUse"  x1="304.064" y1="1725.07" x2="387.344" y2="1725.07">
			<stop offset="0" stop-color="#ff8e33"  />
			<stop offset="1" stop-color="#ff4f26"  />
		</linearGradient>
		<linearGradient id="grd5" gradientUnits="userSpaceOnUse"  x1="1295.775" y1="1657.7" x2="1397.026" y2="1657.7">
			<stop offset="0" stop-color="#ff8e33"  />
			<stop offset="1" stop-color="#ff4f26"  />
		</linearGradient>
		<linearGradient id="grd6" gradientUnits="userSpaceOnUse"  x1="1211.678" y1="1725.07" x2="1294.958" y2="1725.07">
			<stop offset="0" stop-color="#ff8e33"  />
			<stop offset="1" stop-color="#ff4f26"  />
		</linearGradient>
		<linearGradient id="grd7" gradientUnits="userSpaceOnUse"  x1="1777.832" y1="1691.046" x2="1730.1" y2="1738.778">
			<stop offset="0" stop-color="#ff8e33"  />
			<stop offset="1" stop-color="#ff4f26"  />
		</linearGradient>
		<linearGradient id="grd8" gradientUnits="userSpaceOnUse"  x1="743.352" y1="1657.7" x2="927.746" y2="1657.7">
			<stop offset="0" stop-color="#ff8e33"  />
			<stop offset="1" stop-color="#ff4f26"  />
		</linearGradient>
		<linearGradient id="grd9" gradientUnits="userSpaceOnUse"  x1="808.584" y1="1689.488" x2="899.161" y2="1689.488">
			<stop offset="0" stop-color="#ff8e33"  />
			<stop offset="1" stop-color="#ff4f26"  />
		</linearGradient>
		<linearGradient id="grd10" gradientUnits="userSpaceOnUse"  x1="782.322" y1="1715.187" x2="783.202" y2="1715.187">
			<stop offset="0" stop-color="#ff8e33"  />
			<stop offset="1" stop-color="#ff4f26"  />
		</linearGradient>
		<linearGradient id="grd11" gradientUnits="userSpaceOnUse"  x1="807.633" y1="1787.247" x2="893.74" y2="1787.247">
			<stop offset="0" stop-color="#ff8e33"  />
			<stop offset="1" stop-color="#ff4f26"  />
		</linearGradient>
		<linearGradient id="grd12" gradientUnits="userSpaceOnUse"  x1="898.598" y1="1804.461" x2="902.4" y2="1804.461">
			<stop offset="0" stop-color="#ff8e33"  />
			<stop offset="1" stop-color="#ff4f26"  />
		</linearGradient>
		<linearGradient id="grd13" gradientUnits="userSpaceOnUse"  x1="886.734" y1="1758.169" x2="891.386" y2="1758.169">
			<stop offset="0" stop-color="#ff8e33"  />
			<stop offset="1" stop-color="#ff4f26"  />
		</linearGradient>
		<linearGradient id="grd14" gradientUnits="userSpaceOnUse"  x1="757.434" y1="1773.377" x2="941.827" y2="1773.377">
			<stop offset="0" stop-color="#ff8e33"  />
			<stop offset="1" stop-color="#ff4f26"  />
		</linearGradient>
		<linearGradient id="grd15" gradientUnits="userSpaceOnUse"  x1="786.018" y1="1853.921" x2="876.596" y2="1853.921">
			<stop offset="0" stop-color="#ff8e33"  />
			<stop offset="1" stop-color="#ff4f26"  />
		</linearGradient>
		<linearGradient id="grd16" gradientUnits="userSpaceOnUse"  x1="770.177" y1="1715.433" x2="915.002" y2="1715.433">
			<stop offset="0" stop-color="#ff8e33"  />
			<stop offset="1" stop-color="#ff4f26"  />
		</linearGradient>
		<linearGradient id="grd17" gradientUnits="userSpaceOnUse"  x1="782.78" y1="1728.353" x2="786.582" y2="1728.353">
			<stop offset="0" stop-color="#ff8e33"  />
			<stop offset="1" stop-color="#ff4f26"  />
		</linearGradient>
		<linearGradient id="grd18" gradientUnits="userSpaceOnUse"  x1="793.79" y1="1783.976" x2="798.445" y2="1783.976">
			<stop offset="0" stop-color="#ff8e33"  />
			<stop offset="1" stop-color="#ff4f26"  />
		</linearGradient>
		<linearGradient id="grd19" gradientUnits="userSpaceOnUse"  x1="791.44" y1="1745.566" x2="877.546" y2="1745.566">
			<stop offset="0" stop-color="#ff8e33"  />
			<stop offset="1" stop-color="#ff4f26"  />
		</linearGradient>
		<linearGradient id="grd20" gradientUnits="userSpaceOnUse"  x1="901.977" y1="1820.725" x2="902.857" y2="1820.725">
			<stop offset="0" stop-color="#ff8e33"  />
			<stop offset="1" stop-color="#ff4f26"  />
		</linearGradient>
		<linearGradient id="grd21" gradientUnits="userSpaceOnUse"  x1="1440.835" y1="1657.7" x2="1640.009" y2="1657.7">
			<stop offset="0" stop-color="#ff8e33"  />
			<stop offset="1" stop-color="#ff4f26"  />
		</linearGradient>
		<linearGradient id="grd22" gradientUnits="userSpaceOnUse"  x1="1549.506" y1="1774.319" x2="1642.679" y2="1774.319">
			<stop offset="0" stop-color="#ff8e33"  />
			<stop offset="1" stop-color="#ff4f26"  />
		</linearGradient>
		<linearGradient id="grd23" gradientUnits="userSpaceOnUse"  x1="526.398" y1="1657.7" x2="725.571" y2="1657.7">
			<stop offset="0" stop-color="#ff8e33"  />
			<stop offset="1" stop-color="#ff4f26"  />
		</linearGradient>
		<linearGradient id="grd24" gradientUnits="userSpaceOnUse"  x1="635.069" y1="1774.319" x2="728.242" y2="1774.319">
			<stop offset="0" stop-color="#ff8e33"  />
			<stop offset="1" stop-color="#ff4f26"  />
		</linearGradient>
		<linearGradient id="grd25" gradientUnits="userSpaceOnUse"  x1="979.905" y1="1657.7" x2="1173.853" y2="1657.7">
			<stop offset="0" stop-color="#ff8e33"  />
			<stop offset="1" stop-color="#ff4f26"  />
		</linearGradient>
		<linearGradient id="grd26" gradientUnits="userSpaceOnUse"  x1="979.905" y1="1791.22" x2="1018.688" y2="1791.22">
			<stop offset="0" stop-color="#ff8e33"  />
			<stop offset="1" stop-color="#ff4f26"  />
		</linearGradient>
		<linearGradient id="grd27" gradientUnits="userSpaceOnUse"  x1="1795.003" y1="1657.7" x2="1936.334" y2="1657.7">
			<stop offset="0" stop-color="#ff8e33"  />
			<stop offset="1" stop-color="#ff4f26"  />
		</linearGradient>
		<linearGradient id="grd28" gradientUnits="userSpaceOnUse"  x1="2003.772" y1="1658.349" x2="2038.865" y2="1658.349">
			<stop offset="0" stop-color="#ff8e33"  />
			<stop offset="1" stop-color="#ff4f26"  />
		</linearGradient>
	</defs>
	<style>
		tspan { white-space:pre }
		.shp0 { fill: #ff9204 } 
		.shp1 { fill: #004a3b } 
		.shp2 { fill: #002b20 } 
		.shp3 { fill: #001d12 } 
		.shp4 { fill: #008468 } 
		.shp5 { fill: #005242 } 
		.shp6 { fill: #e22e02 } 
		.shp7 { fill: #d60c00 } 
		.shp8 { fill: #ff6d00 } 
		.txt9 { font-size: 65px;fill: #ff6d00;font-family: "Microsoft" } 
		.shp10 { fill: url(#grd1) } 
		.shp11 { fill: url(#grd2) } 
		.shp12 { fill: url(#grd3) } 
		.shp13 { fill: url(#grd4) } 
		.shp14 { fill: url(#grd5) } 
		.shp15 { fill: url(#grd6) } 
		.shp16 { fill: url(#grd7) } 
		.shp17 { fill: url(#grd8) } 
		.shp18 { fill: url(#grd9) } 
		.shp19 { fill: url(#grd10) } 
		.shp20 { fill: url(#grd11) } 
		.shp21 { fill: url(#grd12) } 
		.shp22 { fill: url(#grd13) } 
		.shp23 { fill: url(#grd14) } 
		.shp24 { fill: url(#grd15) } 
		.shp25 { fill: url(#grd16) } 
		.shp26 { fill: url(#grd17) } 
		.shp27 { fill: url(#grd18) } 
		.shp28 { fill: url(#grd19) } 
		.shp29 { fill: url(#grd20) } 
		.shp30 { fill: url(#grd21) } 
		.shp31 { fill: url(#grd22) } 
		.shp32 { fill: url(#grd23) } 
		.shp33 { fill: url(#grd24) } 
		.shp34 { fill: url(#grd25) } 
		.shp35 { fill: url(#grd26) } 
		.shp36 { fill: url(#grd27) } 
		.shp37 { fill: url(#grd28) } 
	</style>
	<g id="Layer 1">
		<g id="&lt;Group&gt;">
			<g id="&lt;Group&gt;">
				<g id="&lt;Group&gt;">
					<path id="&lt;Compound Path&gt;" fill-rule="evenodd" class="shp0" d="M1516.14 1187.5C1496.1 1204.33 1477.21 1215.87 1462.48 1223.65C1454.42 1227.9 1438.6 1236.17 1418.08 1242.69C1376.01 1256.08 1340.24 1253.87 1322.19 1252.58C1303.73 1251.27 1261.06 1247.82 1216.95 1224.64C1204.06 1217.87 1103.51 1162.89 1091.18 1051.54C1089.97 1040.57 1082.31 960.4 1135.64 897.85C1147.52 883.93 1159.56 874.22 1168.5 867.89C1101.41 950.93 1088.16 1052.62 1131.25 1116.25C1157.34 1154.78 1207.52 1185.01 1251.83 1186.28C1264.03 1186.62 1294.94 1187.51 1313.9 1168.72C1320.55 1162.13 1324.45 1154.38 1326.04 1151.15C1334.69 1133.66 1334.22 1117.28 1333.25 1108.6C1332.92 1090.66 1320.87 1076.18 1305.63 1073.25C1291.77 1070.59 1280.37 1078.48 1278.24 1080.01C1275.11 1088.42 1271.52 1095.28 1268.4 1100.5C1263.9 1107.99 1260 1114.51 1252.55 1120.99C1245.75 1126.87 1238.63 1130.47 1232.85 1132.69C1231.26 1136.21 1229.75 1140.27 1228.53 1144.85C1225.89 1154.81 1225.66 1163.64 1226.12 1170.29C1222.36 1166.61 1215.45 1158.76 1212.51 1146.95C1210.95 1140.68 1211 1135.19 1211.39 1131.19C1207.77 1125.39 1202.58 1115.12 1202.26 1101.92C1202 1091.01 1205.17 1083.12 1209.15 1073.55C1216.87 1054.95 1229.48 1037.23 1237.17 1026.42C1238.52 1024.51 1242.74 1018.63 1245.98 1010.06C1249.56 1000.58 1249.42 994.48 1249.34 992.8C1249.24 990.39 1248.97 985.21 1246.14 979.44C1244.98 977.05 1243.64 975.22 1241.02 971.64C1238 967.52 1235.29 964.26 1233.33 962.03C1239.33 964.04 1253.02 969.51 1264.07 982.74C1278.1 999.54 1278.57 1017.72 1278.49 1023.27C1282.08 1020.71 1307.09 1002.42 1304.15 982.59C1300.55 958.43 1258.11 949.95 1237.13 949.08C1208.36 947.89 1187.04 959.64 1179.14 964.55C1151.22 981.88 1140.03 1007.3 1136.6 1016.1C1133.47 976.42 1147.6 939.6 1174.63 921.38C1192.37 909.41 1213.8 906.72 1215.22 906.56C1231.81 904.63 1245.55 907.71 1256.46 911.07C1307.89 926.88 1359.87 959.96 1412.4 1010.3C1437.07 1033.95 1452.33 1048.55 1469.11 1073.45C1498.61 1117.22 1510.69 1159.89 1516.14 1187.5ZM1234.71 1089.07C1234.67 1088.49 1234.13 1082.21 1229.4 1079.89C1228.67 1079.54 1227.6 1079.15 1226.17 1079.09C1224.83 1081.78 1223.12 1086.02 1222.47 1091.49C1221.88 1096.44 1222.39 1100.6 1222.96 1103.41C1223.9 1103.35 1228.17 1102.98 1231.5 1099.39C1235.41 1095.14 1234.82 1089.82 1234.71 1089.07Z" />
				</g>
			</g>
			<path id="&lt;Path&gt;" class="shp1" d="M1162.66 1348.75C1170.09 1349.64 1176.93 1350.28 1183.08 1350.85C1176.24 1350.33 1169.44 1349.64 1162.66 1348.75Z" />
			<path id="&lt;Path&gt;" class="shp1" d="M1516.38 1220.98C1506.33 1233.55 1492.93 1248.28 1475.69 1262.88C1454.63 1280.72 1430.32 1296.26 1403.84 1309.14C1430.64 1295.27 1451.85 1279.62 1457.2 1275.62C1481.9 1257.15 1500.78 1238.43 1512.44 1225.44C1513.87 1223.86 1515.17 1222.37 1516.38 1220.98Z" />
			<path id="&lt;Path&gt;" class="shp2" d="M1525.96 1208.37C1526.06 1208.47 1525.66 1209.17 1524.79 1210.42C1522.89 1213.17 1518.71 1218.48 1512.44 1225.44C1519.47 1216.7 1523.78 1210.72 1525.33 1208.92C1525.69 1208.5 1525.91 1208.31 1525.96 1208.37Z" />
			<path id="&lt;Path&gt;" class="shp3" d="M1183.08 1350.85C1176.24 1350.33 1169.44 1349.64 1162.66 1348.75C1170.09 1349.64 1176.93 1350.28 1183.08 1350.85Z" />
			<path id="&lt;Path&gt;" class="shp3" d="M1516.38 1220.98C1506.33 1233.55 1492.93 1248.28 1475.69 1262.88C1454.63 1280.72 1430.32 1296.26 1403.84 1309.14C1430.64 1295.27 1451.85 1279.62 1457.2 1275.62C1481.9 1257.15 1500.78 1238.43 1512.44 1225.44C1513.87 1223.86 1515.17 1222.37 1516.38 1220.98Z" />
			<path id="&lt;Path&gt;" class="shp4" d="" />
			<path id="&lt;Path&gt;" class="shp5" d="M1550.6 1250.63C1550.59 1250.64 1550.59 1250.65 1550.59 1250.65C1550.59 1250.65 1550.59 1250.65 1550.59 1250.65C1550.59 1250.64 1550.6 1250.64 1550.6 1250.63Z" />
			<g id="&lt;Group&gt;">
				<g id="&lt;Group&gt;">
					<path id="&lt;Path&gt;" class="shp0" d="M898.56 697.38C897.73 697 896.91 696.59 896.11 696.16C871.97 683 853.91 674.03 831.52 660.48C760.66 617.58 641.3 545.31 570.36 408.59C565.01 398.29 542.83 354.7 527.47 292.64C505.18 202.67 509.48 122.18 518.64 64.42C518.64 64.42 518.64 64.42 518.64 64.42C547.32 862.81 1721.89 623.25 1543.32 1245.8C1543.32 1245.8 1543.32 1245.8 1543.32 1245.8C1544.29 1232.2 1544.86 1210.79 1540.96 1185.18C1510.6 934.51 1193.5 831.95 898.56 697.38Z" />
				</g>
				<g id="&lt;Group&gt;">
					<path id="&lt;Path&gt;" class="shp6" d="M1543.32 1245.78C1961.12 432.53 832.77 773.35 518.64 64.43C661.93 779.31 1872.11 559.88 1543.32 1245.78Z" />
				</g>
				<g id="&lt;Group&gt;">
					<path id="&lt;Path&gt;" class="shp7" d="M1609.25 1186.35C1585.25 1214.33 1560.89 1233.56 1543.32 1245.8C1543.32 1245.79 1543.32 1245.79 1543.32 1245.78C1961.12 432.53 832.77 773.35 518.64 64.43C518.64 64.43 518.64 64.42 518.64 64.42C529.9 83.66 548.92 114.17 576.14 148.71C732.14 346.56 955.67 420.32 1027.07 442.91C1034.46 445.25 1056.97 451.75 1079.13 458.18C1173 485.33 1241.03 503.11 1251.59 505.95C1394.74 544.39 1600.97 599.79 1673.09 758.53C1735.5 895.85 1703.23 1076.78 1609.25 1186.35Z" />
				</g>
				<g id="&lt;Group&gt;">
					<path id="&lt;Path&gt;" class="shp8" d="M518.64 64.42C518.64 64.43 518.64 64.43 518.64 64.43C661.93 779.31 1872.11 559.88 1543.32 1245.78C1543.32 1245.79 1543.32 1245.79 1543.32 1245.8C1721.89 623.25 547.32 862.81 518.64 64.42Z" />
				</g>
			</g>
			<path id="&lt;Path&gt;" class="shp5" d="" />
			<g id="&lt;Group&gt;">
				<path id="&lt;Path&gt;" class="shp7" d="M1292.55 1437.76C1248.75 1456.81 1144.79 1495.59 1023.2 1495.59C948.8 1495.59 890.55 1492.65 812.68 1450.19L842.18 1423.26C1020.68 1492.64 1228.15 1457.62 1292.55 1437.76Z" />
			</g>
			<g id="&lt;Group&gt;">
				<path id="&lt;Path&gt;" class="shp0" d="M884.57 1384.58L929.7 1343.39C955.18 1365.29 954.66 1362.34 966.17 1369.38C1034.17 1410.99 1097.16 1424.98 1127.17 1430.53C1205.01 1444.87 1270.29 1437.01 1310.72 1428.88C1287.37 1434.47 1056.3 1494.06 884.57 1384.58Z" />
			</g>
			<g id="&lt;Group&gt;">
				<path id="&lt;Path&gt;" class="shp8" d="M1292.55 1437.76C1228.15 1457.62 987.43 1506.51 842.18 1423.26L884.57 1384.58C1056.3 1494.06 1287.37 1434.47 1310.72 1428.88C1311.36 1428.75 1312.02 1428.62 1312.65 1428.49C1309.43 1430.09 1302.56 1433.41 1292.55 1437.76Z" />
			</g>
			<g id="&lt;Group&gt;">
				<path id="&lt;Path&gt;" class="shp0" d="M722.29 774.22C767.87 798.48 797.1 824.22 808.35 834.6C817.41 842.98 824.6 850.4 829.62 855.79C813.7 884.73 760.26 990.13 788.83 1122.76C810.07 1221.11 866.38 1287.88 910.81 1327.48L865.13 1369.46C817.04 1325.82 583.27 1091.49 722.29 774.22Z" />
			</g>
			<g id="&lt;Group&gt;">
				<path id="&lt;Path&gt;" class="shp7" d="M823.27 1407.73L789.91 1438.59C787.52 1437.31 785.12 1435.96 782.73 1434.6C627.11 1330.83 557.66 1204.03 523.89 1098.3C497.75 1016.4 490.57 943.48 483.66 873.11C478.31 818.99 476.92 773.37 476.68 740.64C483.1 739 491.76 736.97 502.18 735.17C507.09 734.34 524.25 731.46 548.36 730.42C565.7 729.66 581.36 730.07 591.98 730.76C500.25 1120.11 763.16 1358.29 823.27 1407.73Z" />
			</g>
			<g id="&lt;Group&gt;">
				<path id="&lt;Path&gt;" class="shp8" d="M865.13 1369.46L823.27 1407.73C763.16 1358.29 500.25 1120.11 591.98 730.76C593.64 730.87 595.18 730.98 596.58 731.1C642.99 735.01 682.47 754.41 709.73 767.78C714.05 769.91 718.22 772.06 722.29 774.22C583.27 1091.49 817.04 1325.82 865.13 1369.46Z" />
			</g>
			<path id="&lt;Path&gt;" class="shp7" d="M1524.79 1210.42C1504.34 1246.25 1435.49 1355.1 1302.74 1394.78C1122.12 1448.79 911.35 1348.43 839.81 1181.87C806.5 1104.33 796.87 997.31 842.53 898.57C874.97 828.39 924.41 786.07 952.52 765.46L952.49 765.29L970.78 773.27C988.36 780.86 1005.93 788.44 1023.51 796.03C1035.5 801.21 1047.05 806.53 1059.05 811.71C1059.01 811.72 1058.97 811.74 1058.94 811.76L1086.09 823.61C1006.61 827.45 876.62 955.23 895.9 1103.8C897.41 1114.02 899.18 1122.19 900.49 1127.67C900.73 1128.63 900.96 1129.59 901.21 1130.55C901.22 1130.56 901.22 1130.57 901.22 1130.59C904.23 1142.56 907.97 1153.85 912.25 1164.54C928.25 1203.23 955.63 1242.38 997.66 1280.28C1009.79 1290.32 1022.66 1299.24 1036.13 1307.07C1036.32 1307.17 1036.5 1307.28 1036.67 1307.39C1084.28 1336.02 1129.26 1344.77 1162.49 1348.73C1162.55 1348.74 1162.6 1348.75 1162.66 1348.75C1169.44 1349.64 1176.24 1350.33 1183.08 1350.85C1183.29 1350.87 1183.49 1350.88 1183.69 1350.91C1194.71 1351.93 1303.5 1361.07 1403.79 1309.17C1403.81 1309.17 1403.83 1309.16 1403.84 1309.14C1430.32 1296.26 1454.63 1280.72 1475.69 1262.88C1492.93 1248.28 1506.33 1233.55 1516.38 1220.98C1520.48 1216.21 1523.32 1212.55 1524.79 1210.42Z" />
			<g id="&lt;Group&gt;">
				<path id="&lt;Path&gt;" class="shp0" d="M1082.34 941.37C1072.37 965.48 1061.62 991.74 1060.94 1026.97C1060.91 1028.34 1060.87 1030.46 1060.88 1033.23C1060.93 1043.47 1061.74 1064.01 1068.3 1089.07C1070.17 1096.21 1074.32 1110.67 1082.32 1127.94C1084.68 1133.02 1092.2 1148.79 1105.48 1167.43C1108.89 1172.21 1115.26 1181.09 1124.73 1191.33C1143.32 1211.43 1161.24 1223.12 1174.44 1231.61C1194.48 1244.51 1211.45 1252.17 1218.6 1255.26C1279.48 1281.56 1334 1280.52 1351.5 1279.68C1379.45 1278.35 1400.47 1273.33 1407.54 1271.55C1462.47 1257.66 1507.76 1234.43 1525.96 1208.36C1499.2 1246.68 1441.4 1313.08 1342.15 1341.84C1317.95 1348.85 1169.79 1395.65 1043.39 1317.74C1011.84 1298.29 989.8 1276.18 976.02 1260.33C986.18 1267.4 1005.85 1279.11 1033.42 1283.77C1060.56 1288.36 1082.67 1283.97 1094.57 1280.71C1078 1278.49 1048.2 1272.29 1017.12 1252.18C1009.91 1247.52 980.01 1227.47 958.01 1191.04C910.8 1112.83 936.66 1019.82 937.63 1019.84C938.33 1019.86 927.35 1067.01 952.92 1111.55C964.56 1131.83 980.46 1145.78 994.7 1155.37C985.07 1140.57 958.82 1096.02 963.11 1035.13C968.7 955.86 1021.83 908.63 1032.4 899.59C1026.24 906.34 996.48 940.28 999.8 989.27C1001.68 1017.15 1013.44 1037.47 1020.18 1047.35C1018.32 1031.3 1017.29 1005.34 1025.27 975C1036.27 933.21 1058.13 906.75 1064 899.93C1092.16 867.18 1124.95 852.85 1141.44 846.94C1109.58 883.14 1092.02 917.96 1082.34 941.37Z" />
			</g>
			<path id="&lt;Path&gt;" class="shp8" d="M1445.42 1269.69C1350.21 1324.87 1247.03 1329.85 1169.78 1291.46C1188.97 1294.18 1205.63 1291.61 1220.8 1285.93C1220.8 1285.93 1220.8 1285.93 1220.8 1285.93C1220.8 1285.93 1220.8 1285.93 1220.8 1285.93C1206.39 1281.41 1190.56 1275.17 1174.05 1266.45C1172.33 1265.54 1170.38 1264.5 1168.23 1263.33C1152.09 1254.52 1124.76 1237.95 1098.64 1208.36C1086.76 1194.9 1052.58 1155.19 1041.07 1093.21C1023.58 999.1 1071.86 926.34 1081.83 911.31C1107.89 872.03 1140.93 846.48 1141.44 846.94C1141.75 847.23 1130.87 858.24 1117.46 877.43C1112.61 884.38 1104.96 895.87 1096.82 910.88C1093.09 917.76 1084.08 934.96 1075.41 958.6C1071.38 969.56 1068.48 979.07 1066.45 986.32C1064.47 993.36 1059.22 1017.62 1061.59 1049.65C1062.06 1055.99 1063.72 1074.62 1070.78 1097.82C1073.81 1107.75 1081.39 1130.25 1097.61 1155.71C1103.52 1164.98 1116.56 1184.04 1138 1203.83C1141.06 1206.65 1155.73 1220.04 1178.2 1233.99C1185.11 1238.28 1207.77 1251.95 1240.54 1263.14C1279.33 1276.37 1310.82 1278.81 1319.81 1279.39C1325.49 1279.75 1352.63 1281.33 1382.7 1276.64C1467.74 1263.38 1525.12 1207.18 1525.96 1208.36C1526.59 1209.24 1497.13 1243.28 1445.42 1269.69Z" />
		</g>
		<text id="#soulsablaze
" style="transform: matrix(2.756,0,0,2.756,633.158,2103.985)" >
			<tspan x="0" y="0" class="txt9">#soulsablaze
</tspan>
		</text>
		<g id="&lt;Group&gt;">
			<path id="&lt;Path&gt;" class="shp10" d="M252.72 1710.61C254.14 1689.89 244 1670.07 233.91 1663.58L318.79 1663.58C319.89 1697.74 305.09 1710.61 252.72 1710.61Z" />
			<path id="&lt;Path&gt;" class="shp11" d="M241.82 1707.05L241.82 1724.22L241.82 1890.42C221.18 1892.89 204.87 1884.16 199.8 1846.22L199.8 1706.69L159.03 1706.69C139.09 1706.69 122.51 1691.32 121.05 1671.45L121 1663.58L211.86 1663.21C229.35 1666.6 238.96 1681.77 241.82 1707.05Z" />
			<g id="&lt;Group&gt;">
				<g id="&lt;Group&gt;">
					<path id="&lt;Path&gt;" class="shp12" d="M392.4 1663.21L489.41 1890.81L474.82 1890.81C460.18 1890.81 446.95 1882.05 441.24 1868.56L390.08 1747.77C374.93 1712.85 383.35 1687.9 392.4 1663.21Z" />
				</g>
			</g>
			<g id="&lt;Group&gt;">
				<g id="&lt;Group&gt;">
					<path id="&lt;Path&gt;" class="shp13" d="M386.83 1766.75C389.63 1776.93 388.85 1785.62 384.62 1795.29L354 1869.01C348.52 1882.21 335.64 1890.81 321.35 1890.81L304.06 1890.81L371.42 1730.58L386.83 1766.75Z" />
				</g>
			</g>
			<g id="&lt;Group&gt;">
				<g id="&lt;Group&gt;">
					<path id="&lt;Path&gt;" class="shp14" d="M1300.01 1663.21L1397.03 1890.81L1382.44 1890.81C1367.79 1890.81 1354.56 1882.05 1348.85 1868.56L1297.69 1747.77C1282.54 1712.85 1290.97 1687.9 1300.01 1663.21Z" />
				</g>
			</g>
			<g id="&lt;Group&gt;">
				<g id="&lt;Group&gt;">
					<path id="&lt;Path&gt;" class="shp15" d="M1294.44 1766.75C1297.24 1776.93 1296.46 1785.62 1292.23 1795.29L1261.62 1869.01C1256.14 1882.21 1243.25 1890.81 1228.97 1890.81L1211.68 1890.81L1279.03 1730.58L1294.44 1766.75Z" />
				</g>
			</g>
			<path id="&lt;Compound Path&gt;" class="shp16" d="M1726.24 1735.3C1729.33 1727.79 1731.25 1721.17 1731.98 1715.42C1732.72 1709.68 1732.64 1704.67 1731.76 1700.41C1730.88 1696.13 1729.51 1692.56 1727.67 1689.69C1725.84 1686.82 1724.03 1684.5 1722.26 1682.74C1720.49 1680.97 1718.36 1679.57 1715.86 1678.54C1713.35 1677.51 1710.85 1676.62 1708.35 1675.89C1705.84 1675.15 1703.38 1674.38 1700.95 1673.57C1698.52 1672.75 1696.35 1671.54 1694.43 1669.93C1690.31 1666.68 1687.59 1662.34 1686.26 1656.89C1684.94 1651.44 1686.78 1645.77 1691.78 1639.89C1696.05 1634.73 1701.32 1631.9 1707.58 1631.38C1713.84 1630.86 1720.05 1633.11 1726.24 1638.12C1733.16 1643.86 1738.13 1650.89 1741.15 1659.21C1744.16 1667.53 1745.46 1676.18 1745.01 1685.16C1744.57 1694.14 1742.69 1703.01 1739.38 1711.78C1736.07 1720.54 1731.69 1728.38 1726.24 1735.3Z" />
			<g id="&lt;Group&gt;">
				<path id="&lt;Path&gt;" class="shp17" d="M927.75 1663.21C927.75 1672.08 924.58 1679.65 918.42 1685.85C913.66 1690.6 908.03 1693.59 901.7 1694.68C900.89 1694.82 900.04 1694.93 899.16 1695L813.05 1695C811.54 1695 810.03 1695.07 808.58 1695.18L808.37 1695.18C803.87 1695.18 799.64 1696.02 795.7 1697.64C795.63 1697.64 795.56 1697.68 795.52 1697.71C787.57 1700.32 780.42 1704.82 774.05 1711.23C766.48 1718.59 761.59 1727.14 759.26 1736.82C758.24 1741.12 757.75 1745.62 757.75 1750.38C757.75 1759.49 759.79 1767.98 763.91 1775.72C759.58 1771.67 755.74 1766.92 752.36 1761.43C749.06 1755.94 746.66 1750.06 745.15 1743.9C743.95 1738.93 743.35 1733.76 743.35 1728.37C743.35 1710.17 749.69 1694.86 762.5 1682.36C775.14 1669.55 790.49 1663.21 808.37 1663.21L927.75 1663.21Z" />
				<path id="&lt;Path&gt;" class="shp18" d="M895.96 1695.18L808.58 1695.18C810.03 1695.07 811.54 1695 813.05 1695L899.16 1695C898.1 1695.11 897.05 1695.18 895.96 1695.18Z" />
				<path id="&lt;Path&gt;" class="shp19" d="M782.43 1730.52C782.36 1729.64 782.32 1728.76 782.32 1727.88C782.32 1725.45 782.53 1723.16 782.99 1720.95C783.06 1720.88 783.13 1720.77 783.2 1720.7C782.64 1723.13 782.36 1725.7 782.36 1728.37C782.36 1729.11 782.39 1729.82 782.43 1730.52Z" />
				<path id="&lt;Path&gt;" class="shp20" d="M811.36 1793.22C810.1 1793.08 808.87 1792.94 807.63 1792.76C808.97 1792.94 810.31 1793.08 811.68 1793.18L869.77 1793.18C878.95 1793.18 886.84 1796.46 893.18 1802.93C893.35 1803.11 893.56 1803.32 893.74 1803.53C887.09 1796.74 877.65 1793.22 868.08 1793.22L811.36 1793.22Z" />
				<path id="&lt;Path&gt;" class="shp21" d="M902.4 1820.75C901.77 1816.87 900.5 1813.28 898.6 1809.97C898.74 1810.15 898.84 1810.36 898.95 1810.57C900.71 1813.71 901.84 1817.08 902.4 1820.75Z" />
				<path id="&lt;Path&gt;" class="shp22" d="M890.75 1764.88C890.96 1764.95 891.17 1765.04 891.39 1765.12C889.86 1764.61 888.33 1764.09 886.73 1763.68C888.11 1764.03 889.44 1764.46 890.75 1764.88Z" />
			</g>
			<g id="&lt;Group&gt;">
				<path id="&lt;Path&gt;" class="shp23" d="M757.43 1891.4C757.43 1882.53 760.6 1874.96 766.76 1868.76C771.51 1864.01 777.15 1861.02 783.48 1859.93C784.29 1859.79 785.14 1859.68 786.02 1859.61L872.13 1859.61C873.64 1859.61 875.15 1859.54 876.6 1859.43L876.81 1859.43C881.31 1859.43 885.54 1858.59 889.48 1856.97C889.55 1856.97 889.62 1856.93 889.66 1856.9C897.61 1854.29 904.76 1849.79 911.13 1843.38C918.7 1836.02 923.59 1827.47 925.92 1817.79C926.94 1813.49 927.43 1808.99 927.43 1804.24C927.43 1795.12 925.39 1786.63 921.27 1778.89C925.6 1782.94 929.44 1787.69 932.81 1793.18C936.12 1798.67 938.52 1804.55 940.03 1810.71C941.23 1815.68 941.83 1820.85 941.83 1826.24C941.83 1844.44 935.49 1859.75 922.68 1872.25C910.04 1885.06 894.69 1891.4 876.81 1891.4L757.43 1891.4Z" />
				<path id="&lt;Path&gt;" class="shp24" d="M789.22 1859.43L876.6 1859.43C875.15 1859.54 873.64 1859.61 872.13 1859.61L786.02 1859.61C787.07 1859.5 788.13 1859.43 789.22 1859.43Z" />
				<path id="&lt;Path&gt;" class="shp25" d="M915 1798.01L915 1798.25C915 1803 914.51 1807.51 913.49 1811.8C911.55 1819.9 907.82 1827.22 902.19 1833.67C902.65 1831.45 902.86 1829.16 902.86 1826.73C902.86 1826.55 902.86 1826.41 902.82 1826.24C902.82 1825.5 902.79 1824.79 902.75 1824.09C902.75 1823.63 902.68 1823.14 902.65 1822.68C902.58 1822.01 902.51 1821.38 902.4 1820.75C901.84 1817.08 900.71 1813.71 898.95 1810.57C898.84 1810.36 898.74 1810.15 898.6 1809.97C898.18 1809.13 897.65 1808.32 897.05 1807.54C896.52 1806.74 895.92 1805.96 895.25 1805.22C894.9 1804.8 894.51 1804.38 894.13 1803.95C893.99 1803.81 893.88 1803.67 893.74 1803.53C893.56 1803.32 893.35 1803.11 893.18 1802.93C886.84 1796.46 878.95 1793.18 869.77 1793.18L811.68 1793.18C810.31 1793.08 808.97 1792.94 807.63 1792.76C805.59 1792.48 803.62 1792.13 801.68 1791.7C800.59 1791.46 799.5 1791.21 798.45 1790.93C797.07 1790.58 795.73 1790.15 794.43 1789.73C780.21 1784.98 770.25 1771.6 770.18 1756.61L770.18 1756.36C770.18 1751.61 770.67 1747.1 771.69 1742.81C773.63 1734.71 777.36 1727.39 782.99 1720.95C782.53 1723.16 782.32 1725.45 782.32 1727.88C782.32 1728.76 782.36 1729.64 782.43 1730.52C782.43 1730.98 782.5 1731.47 782.53 1731.93C782.6 1732.6 782.67 1733.23 782.78 1733.87C783.34 1737.53 784.47 1740.91 786.23 1744.04C786.34 1744.25 786.44 1744.46 786.58 1744.64C787 1745.48 787.53 1746.29 788.13 1747.07C788.66 1747.88 789.26 1748.65 789.93 1749.39C790.42 1749.99 790.91 1750.52 791.44 1751.08C791.62 1751.29 791.83 1751.5 792 1751.68C798.34 1758.16 806.22 1761.43 815.41 1761.43L873.5 1761.43C874.87 1761.53 876.21 1761.68 877.55 1761.85C879.59 1762.13 881.56 1762.48 883.5 1762.91C884.59 1763.15 885.68 1763.4 886.73 1763.68C888.11 1764.03 889.44 1764.46 890.75 1764.88C904.97 1769.63 914.93 1783.01 915 1798.01Z" />
				<path id="&lt;Path&gt;" class="shp26" d="M782.78 1733.87C783.41 1737.74 784.68 1741.33 786.58 1744.64C786.44 1744.46 786.34 1744.25 786.23 1744.04C784.47 1740.91 783.34 1737.53 782.78 1733.87Z" />
				<path id="&lt;Path&gt;" class="shp27" d="M794.43 1789.73C794.21 1789.66 794.01 1789.57 793.79 1789.49C795.32 1790.01 796.85 1790.52 798.45 1790.93C797.07 1790.58 795.73 1790.15 794.43 1789.73Z" />
				<path id="&lt;Path&gt;" class="shp28" d="M873.81 1761.39C875.08 1761.53 876.31 1761.68 877.55 1761.85C876.21 1761.68 874.87 1761.53 873.5 1761.43L815.41 1761.43C806.22 1761.43 798.34 1758.16 792 1751.68C791.83 1751.5 791.62 1751.29 791.44 1751.08C798.09 1757.87 807.53 1761.39 817.1 1761.39L873.81 1761.39Z" />
				<path id="&lt;Path&gt;" class="shp29" d="M902.82 1826.24C902.86 1826.41 902.86 1826.55 902.86 1826.73C902.86 1829.16 902.65 1831.45 902.19 1833.67C902.12 1833.74 902.05 1833.84 901.98 1833.91C902.54 1831.48 902.82 1828.91 902.82 1826.24Z" />
			</g>
			<g id="&lt;Group&gt;">
				<path id="&lt;Path&gt;" class="shp30" d="M1473.88 1663.21L1476.21 1663.21L1476.21 1822.93L1593.71 1676.63C1600.51 1668.15 1610.8 1663.22 1621.68 1663.22L1640.01 1663.22L1490.27 1863.66C1478.62 1879.25 1460.3 1888.44 1440.84 1888.44L1440.84 1888.44L1440.84 1696.26C1440.84 1678.01 1455.63 1663.21 1473.88 1663.21Z" />
			</g>
			<g id="&lt;Group&gt;">
				<path id="&lt;Path&gt;" class="shp31" d="M1571.84 1779.83L1642.68 1890.81L1625.47 1890.81C1610.03 1890.81 1595.66 1882.94 1587.33 1869.94L1549.51 1810.84L1571.84 1779.83Z" />
			</g>
			<g id="&lt;Group&gt;">
				<path id="&lt;Path&gt;" class="shp32" d="M559.45 1663.21L561.78 1663.21L561.78 1822.93L679.27 1676.63C686.08 1668.15 696.36 1663.22 707.24 1663.22L725.57 1663.22L575.84 1863.66C564.19 1879.25 545.86 1888.44 526.4 1888.44L526.4 1888.44L526.4 1696.26C526.4 1678.01 541.19 1663.21 559.45 1663.21Z" />
			</g>
			<g id="&lt;Group&gt;">
				<path id="&lt;Path&gt;" class="shp33" d="M657.4 1779.83L728.24 1890.81L711.03 1890.81C695.59 1890.81 681.22 1882.94 672.9 1869.94L635.07 1810.84L657.4 1779.83Z" />
			</g>
			<path id="&lt;Path&gt;" class="shp34" d="M1173.85 1663.21L1173.85 1892.14L1170.29 1892.14C1150.82 1892.14 1135.07 1876.36 1135.07 1856.92L1135.07 1786.7L1001.7 1786.7C988.75 1786.7 984.17 1790.42 979.9 1796.13L979.9 1663.21L982.35 1663.21C1000.94 1663.21 1016.3 1677.06 1018.69 1694.95C1018.9 1696.55 1019.02 1698.19 1019.02 1699.85L1019.02 1758.34L1135.07 1758.34L1135.07 1694.08C1135.07 1677.03 1148.88 1663.21 1165.93 1663.21L1173.85 1663.21Z" />
			<path id="&lt;Path&gt;" class="shp35" d="M1018.69 1796.73L1018.69 1809.88L1018.69 1856.92C1018.69 1866.74 1014.67 1875.6 1008.2 1882.01C1001.85 1888.27 993.12 1892.14 983.47 1892.14L979.9 1892.14L979.9 1882.1L979.9 1820.13C979.9 1816.44 980.75 1812.97 982.29 1809.88C986.07 1802.08 994.08 1796.73 1003.33 1796.73L1018.69 1796.73Z" />
			<g id="&lt;Group&gt;">
				<g id="&lt;Group&gt;">
					<path id="&lt;Compound Path&gt;" class="shp36" d="M1926.06 1868.97C1932.98 1875.85 1936.33 1884.06 1936.33 1893.65L1795 1893.65L1795 1817.85L1829.93 1817.85L1829.93 1858.73L1901.41 1858.73C1911.01 1858.73 1919.18 1862.08 1926.06 1868.97ZM1891.14 1759.53C1898.2 1752.46 1901.73 1743.97 1901.73 1734.2C1901.73 1724.28 1898.2 1715.79 1891.14 1708.73C1884.25 1701.84 1875.76 1698.31 1865.81 1698.31L1829.93 1698.31C1822.08 1698.31 1815.19 1696.07 1809.09 1691.43C1799.64 1684.22 1795 1674.77 1795 1663.21L1865.67 1663.21C1885.22 1663.21 1901.88 1670.1 1915.64 1683.9C1920 1688.22 1923.67 1693.03 1926.7 1698.31C1933.12 1709.05 1936.33 1720.89 1936.33 1733.88C1936.33 1746.86 1933.12 1758.88 1926.7 1769.62C1923.67 1774.9 1920 1779.72 1915.64 1784.03C1901.88 1797.84 1885.22 1804.72 1865.67 1804.72L1795 1804.72C1795 1793.16 1799.64 1783.71 1809.09 1776.51C1815.19 1771.87 1822.08 1769.62 1829.93 1769.62L1860.71 1769.62C1862.46 1769.8 1864.06 1769.94 1865.81 1769.94C1867.59 1769.94 1869.2 1769.8 1870.95 1769.62C1878.97 1768.34 1885.68 1764.98 1891.14 1759.53Z" />
				</g>
				<g id="&lt;Group&gt;">
					<path id="&lt;Compound Path&gt;" class="shp37" d="M2003.77 1893.65L2003.77 1698.96C2003.77 1689.18 2007.14 1681.01 2014.03 1674.12C2020.92 1667.23 2029.09 1663.86 2038.87 1663.86L2038.87 1893.65L2003.77 1893.65Z" />
				</g>
			</g>
		</g>
	</g>
</svg>